Coordinates
version=1
nRows=17
nColumns=36
inDegrees=yes

Units are S.I. units (second, meters, Newtons, ...)
If the header above contains a line with 'inDegrees', this indicates whether rotational values are in degrees (yes) or radians (no).

endheader
time	pelvis_tilt	pelvis_list	pelvis_rotation	pelvis_tx	pelvis_ty	pelvis_tz	hip_flexion_r	hip_adduction_r	hip_rotation_r	knee_angle_r	knee_angle_r_beta	ankle_angle_r	subtalar_angle_r	mtp_angle_r	hip_flexion_l	hip_adduction_l	hip_rotation_l	knee_angle_l	knee_angle_l_beta	ankle_angle_l	subtalar_angle_l	mtp_angle_l	lumbar_extension	lumbar_bending	lumbar_rotation	arm_flex_r	arm_add_r	arm_rot_r	elbow_flex_r	pro_sup_r	arm_flex_l	arm_add_l	arm_rot_l	elbow_flex_l	pro_sup_l
     10.05000000	    -23.78218133	     -6.69267302	     -2.32376962	     -0.29665204	      0.74900219	     -0.49208111	     72.58745692	      4.14232938	     -4.76513012	     72.45342916	      1.26455089	     22.13839425	    -16.91938765	     -7.49999987	     75.67537562	    -20.38304144	     12.27723370	     70.39144235	      1.22856243	     22.37335150	      1.54497685	     -7.49999987	    -25.14187504	      6.93065675	      2.06235050	     44.29158093	    -25.95588110	     14.67412843	    124.92667271	    109.47745625	     39.72295396	    -22.31755487	      6.59418882	    130.08194737	     95.65786716
     10.06000000	    -23.65599693	     -6.69748228	     -2.26766588	     -0.29500136	      0.75337718	     -0.49254544	     71.79751158	      4.05379713	     -4.86257989	     71.59408483	      1.24955251	     22.01109805	    -16.79872274	     -7.49999987	     74.88435886	    -20.36053763	     12.01566211	     69.63131507	      1.21529571	     22.27551671	      1.59157772	     -7.49999987	    -24.60667207	      6.94493869	      1.92311257	     43.50370442	    -26.06680732	     14.86260522	    124.93004000	    109.47623872	     38.39772104	    -22.10965723	      6.92961709	    129.97172457	     95.65206261
     10.07000000	    -23.37915402	     -6.55386866	     -2.29664816	     -0.29338931	      0.75861302	     -0.49267554	     70.79089605	      4.10023709	     -4.61014717	     70.58238495	      1.23189501	     21.61928615	    -16.67884392	     -7.49999987	     73.65018738	    -20.38451266	     11.52957517	     68.47984219	      1.19519872	     21.85862194	      1.35153429	     -7.49999987	    -24.30694719	      6.75364932	      1.83376855	     42.76122736	    -25.91008718	     14.89518627	    124.78253009	    109.36420485	     37.30878942	    -21.86317407	      6.84883925	    129.78771984	     95.55333820
     10.08000000	    -23.22859059	     -6.56570342	     -2.30594303	     -0.29163879	      0.76360184	     -0.49279984	     69.88210203	      4.18558151	     -4.56495818	     69.53797148	      1.21366656	     21.41270674	    -16.54663323	     -7.49999987	     72.67851375	    -20.44797562	     11.25211558	     67.44485428	      1.17713477	     21.64426942	      1.34866623	     -7.49999987	    -23.79936093	      6.73296859	      1.77178257	     41.94102604	    -25.89661738	     15.06171839	    124.72917027	    109.33429692	     36.06693793	    -21.63352989	      7.03009834	    129.62336850	     95.52222282
     10.09000000	    -22.92904776	     -6.55593879	     -2.36375163	     -0.28968222	      0.76905744	     -0.49277574	     68.76744720	      4.34281326	     -4.45006035	     68.42404064	      1.19422480	     21.11491557	    -16.47034088	     -7.49999987	     71.47826582	    -20.59426278	     10.84881930	     66.36306413	      1.15825397	     21.34738928	      1.26983306	     -7.49999987	    -23.44536490	      6.64420897	      1.75517645	     41.10855271	    -25.81857431	     15.14746123	    124.62637779	    109.28668460	     34.77787617	    -21.37664711	      7.12571942	    129.41253758	     95.47755123
     10.10000000	    -22.62825698	     -6.52924010	     -2.46078118	     -0.28760679	      0.77470110	     -0.49260642	     67.61576841	      4.54810432	     -4.29609279	     67.24688229	      1.17367951	     20.79152540	    -16.44207538	     -7.49999987	     70.19208820	    -20.76594845	     10.40314040	     65.18951992	      1.13777176	     21.07140946	      1.15623208	     -7.49999987	    -23.06693514	      6.50569456	      1.77111818	     40.24634167	    -25.81215606	     15.31121627	    124.52104149	    109.24241348	     33.47457640	    -21.13969418	      7.27138442	    129.18626724	     95.44263756
     10.11000000	    -22.22428535	     -6.42639937	     -2.59508411	     -0.28534905	      0.78060496	     -0.49236639	     66.34362645	      4.75966922	     -4.03728519	     66.04964646	      1.15278380	     20.29697556	    -16.56471165	     -7.49999987	     68.73456111	    -20.99146992	      9.75256486	     63.99566605	      1.11693508	     20.66492634	      0.94643103	     -7.49999987	    -22.76666999	      6.26441792	      1.80618331	     39.36295235	    -25.82888779	     15.52486647	    124.37556580	    109.15784277	     32.16307505	    -20.85528936	      7.37954072	    128.85439575	     95.40491810
     10.12000000	    -21.95015804	     -6.30149923	     -2.64602202	     -0.28306286	      0.78637191	     -0.49235169	     65.20210946	      4.85700522	     -3.79806372	     64.83890094	      1.13165230	     19.68150391	    -16.90620021	     -7.49999987	     67.40673518	    -21.06165796	      9.16251043	     62.75216398	      1.09523187	     20.23048836	      0.68204861	     -7.49999987	    -22.27911984	      6.04445199	      1.70452851	     38.40397390	    -25.81272330	     15.72515106	    124.27919896	    109.00428979	     30.82175315	    -20.59154242	      7.59098579	    128.53946396	     95.39634034
     10.13000000	    -21.75498922	     -6.28660499	     -2.65432886	     -0.28069906	      0.79209178	     -0.49252602	     64.08855999	      4.95595814	     -3.65753529	     63.56518722	      1.10942181	     19.39266257	    -16.79905087	     -7.49999987	     66.20424844	    -21.12130686	      8.72174890	     61.49321408	      1.07325905	     19.97155086	      0.74762248	     -7.49999987	    -21.66469046	      6.00619023	      1.62182002	     37.39135339	    -25.76384857	     15.90219625	    124.17081320	    108.97287562	     29.35815301	    -20.34847252	      7.84385539	    128.19575362	     95.37485720
     10.14000000	    -21.30097506	     -6.14866413	     -2.67991813	     -0.27816210	      0.79843696	     -0.49269485	     62.67005671	      5.03509971	     -3.35168763	     62.23928337	      1.08628042	     18.92394095	    -16.82943325	     -7.49999987	     64.57367890	    -21.18609759	      8.02225954	     60.10734765	      1.04907112	     19.53947655	      0.73914710	     -7.49999987	    -21.33191578	      5.80682328	      1.57888464	     36.41176626	    -25.60865002	     15.91760539	    123.97673438	    108.91838971	     27.90464193	    -20.14862315	      8.03973151	    127.79130626	     95.34790436
     10.15000000	    -21.04909301	     -6.10640511	     -2.60880334	     -0.27559485	      0.80446652	     -0.49306168	     61.43546962	      5.05531752	     -3.18721388	     60.86294084	      1.06225871	     18.58588424	    -16.80216908	     -7.49999987	     63.21279897	    -21.15674053	      7.51262654	     58.66901003	      1.02396739	     19.23359329	      0.77675910	     -7.49999987	    -20.72384472	      5.74624693	      1.47460569	     35.30558414	    -25.58481262	     16.08149312	    123.88114713	    108.89199687	     26.33100642	    -19.93365684	      8.33976662	    127.47440524	     95.32826250
     10.16000000	    -20.70173787	     -6.04612749	     -2.53980645	     -0.27290022	      0.81069588	     -0.49344402	     60.06782687	      5.08384463	     -2.97721899	     59.45183029	      1.03763018	     18.14578560	    -16.80043987	     -7.49999987	     61.72521719	    -21.12148756	      6.95780070	     57.20355905	      0.99839045	     18.80711314	      0.79522787	     -7.49999987	    -20.21574631	      5.66046141	      1.33899409	     34.23913610	    -25.46927415	     16.18704623	    123.72052381	    108.84527444	     24.79580486	    -19.54760465	      8.55805081	    127.07234752	     95.26583513
     10.17000000	    -20.14629232	     -5.87836671	     -2.51623627	     -0.27010648	      0.81733588	     -0.49385940	     58.49210034	      5.09701686	     -2.62819328	     58.04387655	      1.01305676	     17.32256388	    -17.24266355	     -7.49999987	     59.90463103	    -21.04813359	      6.24790388	     55.69130376	      0.97199662	     18.09557240	      0.49306422	     -7.49999987	    -19.96040719	      5.44452242	      1.17807854	     33.26810303	    -25.27952505	     16.22462179	    123.53082930	    108.72362776	     23.40403971	    -19.11636273	      8.75334380	    126.63548151	     95.03079686
     10.18000000	    -19.77194227	     -5.82308305	     -2.43553977	     -0.26727284	      0.82373498	     -0.49444124	     57.05354647	      5.10191107	     -2.44134136	     56.53824381	      0.98677851	     16.71595945	    -17.38180745	     -7.49999987	     58.35108281	    -20.97298017	      5.70531203	     54.15011541	      0.94509780	     17.54365117	      0.43307274	     -7.49999987	    -19.47122472	      5.40429484	      0.99401029	     32.21480032	    -25.21359552	     16.41689915	    123.38028008	    108.64735361	     21.99602922	    -18.73118636	      8.95388960	    126.19119555	     94.79732474
     10.19000000	    -19.47679662	     -5.76894400	     -2.36318166	     -0.26441942	      0.83001779	     -0.49505749	     55.68243985	      5.13857755	     -2.15805520	     55.01336159	      0.96016429	     16.22614860	    -17.40478597	     -7.49999987	     56.84079528	    -20.83613732	      5.30092587	     52.55375332	      0.91723603	     17.08955028	      0.46048634	     -7.49999987	    -18.88771450	      5.39654927	      0.87820440	     31.14527611	    -25.17221253	     16.66980598	    123.29820314	    108.59600722	     20.50302719	    -18.35437602	      9.12033501	    125.81857087	     94.63096634
     10.20000000	    -18.98886895	     -5.68271352	     -2.41280587	     -0.26146110	      0.83666065	     -0.49529687	     54.08394469	      5.30379587	     -1.72168453	     53.42072059	      0.93236746	     15.30912032	    -17.89619363	     -7.49999987	     55.02367574	    -20.84123322	      4.63244119	     50.86288399	      0.88772479	     16.37348982	      0.22509371	     -7.49999987	    -18.55277080	      5.28238376	      0.81681827	     30.13302590	    -25.04350939	     16.90523454	    123.16712517	    108.45581518	     19.08492556	    -17.96286861	      9.13286823	    125.50335258	     94.28193896
     10.21000000	    -18.67741389	     -5.72415499	     -2.53720078	     -0.25844779	      0.84288647	     -0.49519412	     52.63842275	      5.61028949	     -1.38657792	     51.75229799	      0.90324800	     14.58169364	    -18.08316286	     -7.49999987	     53.46387800	    -21.01078185	      4.04693895	     49.23569922	      0.85932506	     15.78553332	      0.25042896	     -7.49999987	    -17.96195239	      5.27052917	      0.87638946	     29.02785712	    -24.93626627	     17.12342551	    123.03100117	    108.38039117	     17.62738918	    -17.56510964	      9.19268382	    125.10882008	     94.02306317
